<svg width="33" height="17" viewBox="0 0 33 17" fill="none" xmlns="http://www.w3.org/2000/svg">
<path fill-rule="evenodd" clip-rule="evenodd" d="M0.823913 8.46946C0.82361 6.60552 1.44434 4.79462 2.58805 3.32282C3.73176 1.85102 5.33324 0.802235 7.1395 0.342147C8.94576 -0.117941 10.8538 0.0368959 12.5623 0.782198C14.2707 1.5275 15.6821 2.82078 16.5736 4.45772L29.6257 4.45663C31.0344 4.45651 32.1778 5.59975 32.178 7.0085L32.1783 10.6543C32.1783 10.9444 32.0631 11.2226 31.858 11.4278C31.6529 11.6329 31.3747 11.7482 31.0846 11.7482L27.8034 11.7485L27.8036 14.3005C27.8036 14.5906 27.6884 14.8688 27.4833 15.074C27.2782 15.2791 27 15.3944 26.7099 15.3944L23.0641 15.3947C22.774 15.3947 22.4958 15.2795 22.2907 15.0744C22.0855 14.8693 21.9703 14.5911 21.9702 14.301L21.97 11.7489L16.9286 11.7494C16.1719 13.5284 14.8238 14.9914 13.1124 15.8908C11.401 16.7902 9.43148 17.0707 7.53706 16.6849C5.64264 16.2991 3.93969 15.2706 2.71638 13.7736C1.49307 12.2765 0.824541 10.4028 0.823913 8.46946ZM9.20909 5.55209C8.43554 5.55215 7.6937 5.85951 7.14676 6.40654C6.59983 6.95356 6.2926 7.69545 6.29266 8.469C6.29273 9.24255 6.60008 9.98439 7.14711 10.5313C7.69413 11.0783 8.43603 11.3855 9.20957 11.3854C9.98312 11.3854 10.725 11.078 11.2719 10.531C11.8188 9.98395 12.1261 9.24206 12.126 8.46851C12.1259 7.69497 11.8186 6.95313 11.2716 6.40619C10.7245 5.85925 9.98263 5.55203 9.20909 5.55209Z" fill="#EAD38D"/>
</svg>
