<svg width="38" height="30" viewBox="0 0 38 30" fill="none" xmlns="http://www.w3.org/2000/svg">
<path d="M37.3347 23.0915C37.3348 23.529 37.2431 23.9665 37.0598 24.369C36.8825 24.7724 36.6276 25.1404 36.3083 25.4541C35.9765 25.7534 35.5915 25.9967 35.1717 26.1717C34.7411 26.339 34.2798 26.4223 33.815 26.4168C31.7401 26.3835 29.6679 26.5715 27.6367 26.9773C25.2298 27.2485 22.9111 28.0064 20.8352 29.2004L20.8331 3.10789C22.8332 2.19772 24.9763 1.60604 27.1762 1.35736C29.4153 0.932929 31.6955 0.73913 33.9779 0.779292C34.8871 0.827394 35.7413 1.20994 36.3613 1.84659C36.9663 2.46254 37.3019 3.27626 37.2965 4.12151L37.3347 23.0915ZM17.1664 3.1082L17.1686 29.2007C15.1267 28.0186 12.8464 27.2614 10.4767 26.9788C8.40739 26.5795 6.29935 26.3919 4.18835 26.4193C3.72353 26.4249 3.26224 26.3416 2.83166 26.1744C2.41286 25.9985 2.02847 25.7559 1.69493 25.457C1.368 25.1492 1.11195 24.7797 0.943175 24.3721C0.759115 23.9692 0.665405 23.5341 0.668068 23.0946L0.666472 4.01958C0.669289 3.17596 1.00794 2.36491 1.61382 1.75072C2.2197 1.13654 3.04751 0.765155 3.92953 0.711805C6.26098 0.655349 8.59169 0.848866 10.8779 1.28872C13.0663 1.5534 15.1923 2.16852 17.1664 3.1082Z" fill="#EAD38D"/>
</svg>
