<svg xmlns="http://www.w3.org/2000/svg" xmlns:xlink="http://www.w3.org/1999/xlink" width="500" zoomAndPan="magnify" viewBox="0 0 375 374.999991" height="500" preserveAspectRatio="xMidYMid meet" version="1.0"><defs><g/><clipPath id="91bab1f930"><path d="M 74.6875 204 L 186 204 L 186 248.558594 L 74.6875 248.558594 Z M 74.6875 204 " clip-rule="nonzero"/></clipPath><clipPath id="d6b62a1b45"><path d="M 140 180.308594 L 189 180.308594 L 189 232 L 140 232 Z M 140 180.308594 " clip-rule="nonzero"/></clipPath><clipPath id="c99d773b93"><path d="M 196 204 L 306.4375 204 L 306.4375 248.558594 L 196 248.558594 Z M 196 204 " clip-rule="nonzero"/></clipPath><clipPath id="40c250582f"><path d="M 192 180.308594 L 241 180.308594 L 241 232 L 192 232 Z M 192 180.308594 " clip-rule="nonzero"/></clipPath><clipPath id="f16f3bbeac"><path d="M 66 263 L 183 263 L 183 320 L 66 320 Z M 66 263 " clip-rule="nonzero"/></clipPath><clipPath id="1b8251213b"><path d="M 60.617188 266.054688 L 139.761719 226.457031 L 185.734375 318.347656 L 106.589844 357.945312 Z M 60.617188 266.054688 " clip-rule="nonzero"/></clipPath><clipPath id="b721b662fa"><path d="M 60.617188 266.054688 L 139.761719 226.457031 L 185.734375 318.347656 L 106.589844 357.945312 Z M 60.617188 266.054688 " clip-rule="nonzero"/></clipPath><clipPath id="daebbdf1ae"><path d="M 60.617188 266.054688 L 139.761719 226.457031 L 185.734375 318.347656 L 106.589844 357.945312 Z M 60.617188 266.054688 " clip-rule="nonzero"/></clipPath><clipPath id="ff0636c494"><path d="M 199 256 L 310 256 L 310 325 L 199 325 Z M 199 256 " clip-rule="nonzero"/></clipPath><clipPath id="d7bf836123"><path d="M 230.773438 226.300781 L 314.042969 256.273438 L 279.246094 352.949219 L 195.976562 322.976562 Z M 230.773438 226.300781 " clip-rule="nonzero"/></clipPath><clipPath id="8a366a8948"><path d="M 314.375 256.390625 L 231.105469 226.417969 L 196.304688 323.097656 L 279.574219 353.070312 Z M 314.375 256.390625 " clip-rule="nonzero"/></clipPath><clipPath id="6ab9a9e406"><path d="M 314.375 256.390625 L 231.105469 226.417969 L 196.304688 323.097656 L 279.574219 353.070312 Z M 314.375 256.390625 " clip-rule="nonzero"/></clipPath></defs><g clip-path="url(#91bab1f930)"><path fill="#000000" d="M 74.960938 204.824219 L 97.394531 248.558594 L 84.507812 213.71875 C 84.507812 213.71875 154.546875 219.570312 185.09375 248.558594 C 185.09375 248.558594 173.875 214.59375 74.960938 204.824219 Z M 74.960938 204.824219 " fill-opacity="1" fill-rule="nonzero"/></g><path fill="#000000" d="M 110.976562 188.785156 L 110.976562 204.824219 C 161.222656 211.230469 188.941406 239.800781 188.941406 239.800781 C 168.683594 204.269531 110.976562 188.785156 110.976562 188.785156 Z M 110.976562 188.785156 " fill-opacity="1" fill-rule="nonzero"/><g clip-path="url(#d6b62a1b45)"><path fill="#000000" d="M 140.5 180.308594 L 140.5 194.5 C 172.4375 207.3125 188.894531 231.277344 188.894531 231.277344 C 177.628906 198.140625 140.5 180.308594 140.5 180.308594 Z M 140.5 180.308594 " fill-opacity="1" fill-rule="nonzero"/></g><g clip-path="url(#c99d773b93)"><path fill="#000000" d="M 306.164062 204.824219 C 207.25 214.59375 196.03125 248.558594 196.03125 248.558594 C 226.578125 219.570312 296.617188 213.71875 296.617188 213.71875 L 283.730469 248.558594 Z M 306.164062 204.824219 " fill-opacity="1" fill-rule="nonzero"/></g><path fill="#000000" d="M 270.195312 188.785156 C 270.195312 188.785156 212.488281 204.222656 192.230469 239.753906 C 192.230469 239.753906 219.949219 211.183594 270.195312 204.777344 Z M 270.195312 188.785156 " fill-opacity="1" fill-rule="nonzero"/><g clip-path="url(#40c250582f)"><path fill="#000000" d="M 240.621094 194.5 L 240.621094 180.308594 C 240.621094 180.308594 203.496094 198.140625 192.230469 231.277344 C 192.230469 231.277344 208.6875 207.3125 240.621094 194.5 Z M 240.621094 194.5 " fill-opacity="1" fill-rule="nonzero"/></g><g clip-path="url(#f16f3bbeac)"><g clip-path="url(#1b8251213b)"><g clip-path="url(#b721b662fa)"><g clip-path="url(#daebbdf1ae)"><path fill="#000000" d="M 66.855469 278.25 C 69.488281 270.210938 79.15625 268.195312 86.351562 270.890625 C 95.085938 274.164062 100.707031 282.160156 107.347656 288.257812 C 114.550781 294.867188 123.085938 297.574219 132.691406 298.285156 C 142.109375 298.984375 151.671875 298.054688 160.976562 300.023438 C 165.980469 301.082031 170.757812 303.039062 174.75 306.289062 C 176.546875 307.734375 178.105469 309.402344 179.425781 311.292969 C 180.109375 312.277344 180.699219 313.3125 181.195312 314.402344 C 181.554688 315.1875 182.523438 318.78125 182.214844 316.203125 C 182.285156 317.449219 182.445312 318.691406 182.691406 319.917969 C 182.652344 319.785156 182.53125 318.273438 182.472656 317.808594 C 182.035156 314.101562 181.691406 310.527344 179.878906 307.175781 C 177.695312 303.144531 174.148438 299.921875 170.199219 297.65625 C 161.539062 292.691406 151.128906 292.714844 141.449219 292.59375 C 131.769531 292.472656 121.324219 292.160156 112.75 286.9375 C 104.175781 281.714844 98.910156 272.816406 90.566406 267.417969 C 82.863281 262.417969 69.609375 261.570312 66.125 272.222656 C 65.546875 273.980469 67.421875 276.527344 66.855469 278.25 Z M 66.855469 278.25 " fill-opacity="1" fill-rule="nonzero"/></g></g></g></g><g clip-path="url(#ff0636c494)"><g clip-path="url(#d7bf836123)"><g clip-path="url(#8a366a8948)"><g clip-path="url(#6ab9a9e406)"><path fill="#000000" d="M 309.621094 269.242188 C 306.054688 261.570312 296.21875 260.707031 289.390625 264.234375 C 281.101562 268.515625 276.464844 277.117188 270.589844 283.960938 C 264.21875 291.371094 256.0625 295.066406 246.613281 296.910156 C 237.339844 298.714844 227.734375 298.921875 218.726562 301.976562 C 213.886719 303.617188 209.371094 306.125 205.792969 309.824219 C 204.179688 311.472656 202.828125 313.3125 201.738281 315.34375 C 201.175781 316.402344 200.714844 317.5 200.347656 318.640625 C 200.082031 319.460938 199.546875 323.144531 199.546875 320.546875 C 199.625 321.796875 199.613281 323.046875 199.515625 324.292969 C 199.535156 324.15625 199.480469 322.644531 199.484375 322.171875 C 199.480469 318.441406 199.398438 314.851562 200.804688 311.308594 C 202.492188 307.046875 205.632812 303.433594 209.289062 300.714844 C 217.304688 294.761719 227.644531 293.554688 237.242188 292.292969 C 246.839844 291.027344 257.171875 289.484375 265.070312 283.285156 C 272.96875 277.089844 277.144531 267.628906 284.796875 261.28125 C 291.851562 255.410156 304.914062 253.003906 309.632812 263.167969 C 310.414062 264.84375 308.855469 267.597656 309.621094 269.242188 Z M 309.621094 269.242188 " fill-opacity="1" fill-rule="nonzero"/></g></g></g></g><g fill="#000000" fill-opacity="1"><g transform="translate(100.611333, 155.130576)"><g><path d="M 27.953125 -38.171875 C 27.285156 -40.648438 26.421875 -42.867188 25.359375 -44.828125 C 24.304688 -46.785156 22.945312 -48.191406 21.28125 -49.046875 C 19.613281 -49.910156 17.878906 -49.957031 16.078125 -49.1875 C 15.515625 -48.925781 15.175781 -48.878906 15.0625 -49.046875 C 14.945312 -49.222656 14.984375 -49.4375 15.171875 -49.6875 C 15.367188 -49.9375 15.609375 -50.109375 15.890625 -50.203125 C 18.609375 -51.191406 20.992188 -51.070312 23.046875 -49.84375 C 25.097656 -48.625 26.789062 -46.773438 28.125 -44.296875 C 30.769531 -39.398438 31.691406 -33.597656 30.890625 -26.890625 C 30.085938 -20.191406 27.90625 -14.816406 24.34375 -10.765625 C 31.570312 -10.191406 36.664062 -10.179688 39.625 -10.734375 C 42.757812 -11.296875 45.441406 -12.175781 47.671875 -13.375 C 50.492188 -14.894531 52.410156 -16.84375 53.421875 -19.21875 C 53.984375 -20.476562 54.039062 -21.515625 53.59375 -22.328125 C 53.15625 -23.148438 52.59375 -23.773438 51.90625 -24.203125 C 51.226562 -24.640625 51.082031 -24.976562 51.46875 -25.21875 C 51.863281 -25.457031 52.265625 -25.425781 52.671875 -25.125 C 53.867188 -24.300781 54.945312 -22.992188 55.90625 -21.203125 C 56.5625 -19.804688 56.5625 -18.234375 55.90625 -16.484375 C 55.25 -14.742188 53.914062 -13.238281 51.90625 -11.96875 C 51.414062 -11.65625 50.773438 -11.285156 49.984375 -10.859375 C 49.191406 -10.429688 48.070312 -9.984375 46.625 -9.515625 C 45.1875 -9.046875 43.773438 -8.695312 42.390625 -8.46875 C 41.015625 -8.238281 39.296875 -8.148438 37.234375 -8.203125 C 35.179688 -8.253906 33.625 -8.335938 32.5625 -8.453125 C 31.507812 -8.566406 29.875 -8.78125 27.65625 -9.09375 C 25.4375 -9.414062 24 -9.609375 23.34375 -9.671875 C 22.03125 -8.453125 21.007812 -7.644531 20.28125 -7.25 C 19.550781 -6.851562 19.148438 -6.640625 19.078125 -6.609375 C 14.648438 -4.222656 10.390625 -3.457031 6.296875 -4.3125 C 2.210938 -5.175781 -0.960938 -7.707031 -3.234375 -11.90625 C -6.066406 -17.164062 -6.71875 -22.882812 -5.1875 -29.0625 C -3.664062 -35.238281 -0.878906 -40.078125 3.171875 -43.578125 C 4.335938 -44.585938 5.394531 -45.34375 6.34375 -45.84375 C 9.082031 -47.320312 11.800781 -47.753906 14.5 -47.140625 C 17.863281 -46.335938 20.585938 -44.003906 22.671875 -40.140625 C 24.710938 -36.335938 25.546875 -32.117188 25.171875 -27.484375 C 24.535156 -20.492188 21.648438 -14.984375 16.515625 -10.953125 C 16.566406 -10.941406 17.171875 -11.003906 18.328125 -11.140625 L 22.203125 -10.890625 C 25.328125 -14.128906 27.375 -18.273438 28.34375 -23.328125 C 29.320312 -28.378906 29.191406 -33.328125 27.953125 -38.171875 Z M 11.203125 -9.921875 L 15.390625 -11.75 C 19.046875 -15.375 21.164062 -20.160156 21.75 -26.109375 C 22.34375 -32.054688 21.570312 -37.003906 19.4375 -40.953125 C 17.3125 -44.898438 14.53125 -46.65625 11.09375 -46.21875 C 10.007812 -46.0625 8.921875 -45.6875 7.828125 -45.09375 C 6.734375 -44.5 5.640625 -43.71875 4.546875 -42.75 C 1.179688 -39.820312 -0.953125 -35.046875 -1.859375 -28.421875 C -2.773438 -21.804688 -2.039062 -16.285156 0.34375 -11.859375 C 2.375 -8.085938 5.066406 -5.929688 8.421875 -5.390625 C 11.160156 -4.929688 14.066406 -5.523438 17.140625 -7.171875 C 18.742188 -8.035156 20.085938 -8.945312 21.171875 -9.90625 C 19.359375 -10.125 17.539062 -10.09375 15.71875 -9.8125 C 14.3125 -8.488281 13.4375 -7.734375 13.09375 -7.546875 C 12.75 -7.367188 12.539062 -7.257812 12.46875 -7.21875 C 11.863281 -6.925781 11.328125 -6.925781 10.859375 -7.21875 C 10.390625 -7.519531 10.179688 -7.953125 10.234375 -8.515625 C 10.285156 -9.078125 10.609375 -9.546875 11.203125 -9.921875 Z M 11.203125 -9.921875 "/></g></g></g><g fill="#000000" fill-opacity="1"><g transform="translate(134.729487, 136.340404)"><g><path d="M -2.640625 -20.96875 L -2.9375 -21.921875 C -3.082031 -23.671875 -2.394531 -25.546875 -0.875 -27.546875 C 0.632812 -29.546875 2.644531 -31.546875 5.15625 -33.546875 C 7.675781 -35.554688 11.867188 -37.609375 17.734375 -39.703125 C 21.078125 -40.847656 23.898438 -41.625 26.203125 -42.03125 C 28.515625 -42.4375 30.585938 -42.597656 32.421875 -42.515625 C 34.253906 -42.441406 35.84375 -41.929688 37.1875 -40.984375 C 38.53125 -40.046875 39.335938 -38.789062 39.609375 -37.21875 C 39.890625 -35.644531 39.488281 -34.046875 38.40625 -32.421875 C 37.332031 -30.796875 35.859375 -29.441406 33.984375 -28.359375 C 30.347656 -26.234375 26.765625 -24.773438 23.234375 -23.984375 C 25.191406 -23.234375 26.8125 -22.5625 28.09375 -21.96875 C 29.382812 -21.375 30.796875 -20.539062 32.328125 -19.46875 C 33.867188 -18.394531 34.90625 -17.414062 35.4375 -16.53125 C 35.976562 -15.65625 36.316406 -14.851562 36.453125 -14.125 C 36.878906 -11.707031 36.363281 -9.238281 34.90625 -6.71875 C 33.957031 -4.976562 32.46875 -3.460938 30.4375 -2.171875 C 28.40625 -0.878906 26.164062 -0.0195312 23.71875 0.40625 C 18.488281 1.34375 15.300781 0.0078125 14.15625 -3.59375 C 14.070312 -3.664062 14.015625 -3.785156 13.984375 -3.953125 C 12.859375 -1.171875 11.785156 0.304688 10.765625 0.484375 C 10.484375 0.535156 10.015625 0.546875 9.359375 0.515625 C 8.703125 0.492188 8.347656 0.398438 8.296875 0.234375 C 8.242188 0.078125 8.171875 -0.265625 8.078125 -0.796875 C 7.984375 -1.335938 8.144531 -2.6875 8.5625 -4.84375 C 8.976562 -7 9.5 -9.148438 10.125 -11.296875 C 11.394531 -15.296875 12.664062 -19.1875 13.9375 -22.96875 C 14.144531 -23.757812 14.210938 -24.335938 14.140625 -24.703125 C 14.078125 -25.078125 14.007812 -25.367188 13.9375 -25.578125 C 13.894531 -26.734375 14.613281 -28.398438 16.09375 -30.578125 C 17.582031 -32.765625 19.066406 -33.988281 20.546875 -34.25 C 21.035156 -34.34375 21.71875 -34.273438 22.59375 -34.046875 C 23.476562 -33.828125 24.066406 -33.398438 24.359375 -32.765625 C 24.441406 -32.492188 24.476562 -32.320312 24.46875 -32.25 C 24.46875 -32.1875 24.351562 -32.175781 24.125 -32.21875 C 23.90625 -32.269531 23.773438 -32.296875 23.734375 -32.296875 C 22.421875 -32.054688 21.03125 -30.804688 19.5625 -28.546875 C 18.09375 -26.285156 16.765625 -23.597656 15.578125 -20.484375 C 13.128906 -14.140625 11.472656 -8.992188 10.609375 -5.046875 C 10.421875 -4.171875 10.367188 -3.507812 10.453125 -3.0625 C 10.554688 -2.445312 10.875 -2.1875 11.40625 -2.28125 C 11.945312 -2.375 12.566406 -3.0625 13.265625 -4.34375 C 13.960938 -5.625 14.5 -6.285156 14.875 -6.328125 C 15.25 -6.378906 15.566406 -6.320312 15.828125 -6.15625 C 16.085938 -5.988281 16.273438 -5.800781 16.390625 -5.59375 C 16.515625 -5.382812 16.632812 -5.078125 16.75 -4.671875 C 16.863281 -4.273438 16.953125 -4.019531 17.015625 -3.90625 C 18.191406 -1.113281 20.515625 -0.0234375 23.984375 -0.640625 C 24.054688 -0.660156 24.132812 -0.675781 24.21875 -0.6875 C 27.039062 -1.1875 29.332031 -2.269531 31.09375 -3.9375 C 33.050781 -5.800781 33.835938 -7.828125 33.453125 -10.015625 C 33.066406 -12.203125 31.632812 -14.316406 29.15625 -16.359375 C 28.375 -16.984375 27.25 -17.734375 25.78125 -18.609375 C 22.675781 -20.460938 21.019531 -21.707031 20.8125 -22.34375 C 20.613281 -22.988281 20.796875 -23.582031 21.359375 -24.125 C 21.921875 -24.664062 22.460938 -24.984375 22.984375 -25.078125 C 24.992188 -25.441406 27.601562 -26.640625 30.8125 -28.671875 C 35.5625 -31.671875 37.894531 -34.472656 37.8125 -37.078125 C 37.78125 -37.234375 37.753906 -37.351562 37.734375 -37.4375 C 37.609375 -38.164062 37.164062 -38.800781 36.40625 -39.34375 C 35.082031 -40.332031 32.640625 -40.507812 29.078125 -39.875 C 24.210938 -39.019531 18.71875 -37.140625 12.59375 -34.234375 C 8.851562 -32.484375 5.660156 -30.359375 3.015625 -27.859375 C 0.128906 -25.109375 -1.09375 -22.503906 -0.65625 -20.046875 C -0.5625 -19.515625 -0.304688 -19.023438 0.109375 -18.578125 C 0.523438 -18.128906 0.96875 -17.828125 1.4375 -17.671875 C 1.914062 -17.523438 2.523438 -17.378906 3.265625 -17.234375 C 4.003906 -17.085938 4.539062 -16.972656 4.875 -16.890625 C 5.207031 -16.804688 5.335938 -16.648438 5.265625 -16.421875 C 5.203125 -16.191406 4.914062 -16.078125 4.40625 -16.078125 C 3.050781 -15.921875 1.601562 -16.242188 0.0625 -17.046875 C -1.46875 -17.859375 -2.351562 -18.957031 -2.59375 -20.34375 C -2.632812 -20.539062 -2.648438 -20.75 -2.640625 -20.96875 Z M -2.640625 -20.96875 "/></g></g></g><g fill="#000000" fill-opacity="1"><g transform="translate(172.42785, 130.138706)"><g><path d="M 5.515625 1.203125 C 4.859375 1.140625 4.160156 0.875 3.421875 0.40625 C 2.691406 -0.0625 2.09375 -0.675781 1.625 -1.4375 C 1.164062 -2.207031 0.972656 -3.007812 1.046875 -3.84375 C 1.117188 -4.675781 1.378906 -5.441406 1.828125 -6.140625 C 2.796875 -7.804688 4.273438 -9.367188 6.265625 -10.828125 C 8.265625 -12.296875 10.304688 -13.515625 12.390625 -14.484375 C 14.484375 -15.460938 16.117188 -16.046875 17.296875 -16.234375 C 18.484375 -16.421875 19.625 -16.460938 20.71875 -16.359375 C 21.8125 -16.265625 22.722656 -15.898438 23.453125 -15.265625 C 24.191406 -14.640625 24.535156 -14.015625 24.484375 -13.390625 C 24.460938 -13.179688 24.425781 -13.054688 24.375 -13.015625 C 24.332031 -12.984375 24.238281 -13.015625 24.09375 -13.109375 C 23.664062 -13.941406 22.675781 -14.429688 21.125 -14.578125 C 19.570312 -14.722656 17.765625 -14.375 15.703125 -13.53125 C 13.648438 -12.695312 11.691406 -11.59375 9.828125 -10.21875 C 8.242188 -9 6.828125 -7.578125 5.578125 -5.953125 C 4.328125 -4.335938 3.664062 -3.132812 3.59375 -2.34375 C 3.445312 -0.820312 3.804688 -0.0234375 4.671875 0.046875 C 5.546875 0.128906 6.941406 -0.441406 8.859375 -1.671875 C 12.015625 -3.898438 14.179688 -5.539062 15.359375 -6.59375 C 19.546875 -10.34375 21.78125 -12.203125 22.0625 -12.171875 C 22.5625 -12.128906 23.144531 -11.929688 23.8125 -11.578125 C 24.488281 -11.222656 24.6875 -10.851562 24.40625 -10.46875 C 22.03125 -7.675781 20.515625 -4.789062 19.859375 -1.8125 C 19.785156 -1.4375 19.722656 -0.960938 19.671875 -0.390625 C 19.617188 0.179688 19.738281 0.671875 20.03125 1.078125 C 20.59375 1.804688 21.4375 1.925781 22.5625 1.4375 C 23.695312 0.945312 25.300781 -0.0703125 27.375 -1.625 C 29.457031 -3.175781 31.15625 -4.734375 32.46875 -6.296875 C 32.644531 -6.472656 32.832031 -6.503906 33.03125 -6.390625 C 33.226562 -6.273438 33.320312 -6.175781 33.3125 -6.09375 C 33.257812 -5.46875 32.15625 -4.195312 30 -2.28125 C 27.851562 -0.375 26.222656 0.898438 25.109375 1.546875 C 23.046875 2.828125 21.1875 3.390625 19.53125 3.234375 C 17.957031 3.085938 16.972656 2.203125 16.578125 0.578125 C 16.503906 0.0664062 16.492188 -0.488281 16.546875 -1.09375 C 16.722656 -2.96875 17.296875 -4.898438 18.265625 -6.890625 C 18.085938 -6.828125 17.242188 -6.070312 15.734375 -4.625 C 14.222656 -3.175781 12.503906 -1.8125 10.578125 -0.53125 C 8.648438 0.75 6.960938 1.328125 5.515625 1.203125 Z M 5.515625 1.203125 "/></g></g></g><g fill="#000000" fill-opacity="1"><g transform="translate(198.837357, 132.572775)"><g><path d="M 23.953125 -10.296875 C 24.671875 -10.078125 25.410156 -9.453125 26.171875 -8.421875 C 26.941406 -7.390625 27.28125 -6.492188 27.1875 -5.734375 C 27.144531 -5.441406 27.085938 -5.175781 27.015625 -4.9375 C 26.472656 -3.15625 25.015625 -1.507812 22.640625 0 C 20.273438 1.519531 17.78125 2.660156 15.15625 3.421875 C 11.09375 4.703125 7.390625 4.835938 4.046875 3.828125 C 2.691406 3.410156 1.675781 2.910156 1 2.328125 C 0.445312 1.816406 1.285156 1.894531 3.515625 2.5625 C 5.929688 3.300781 9.503906 2.828125 14.234375 1.140625 C 18.753906 -0.347656 21.972656 -2.796875 23.890625 -6.203125 C 24.171875 -6.734375 24.332031 -7.304688 24.375 -7.921875 C 24.414062 -8.535156 24.15625 -8.925781 23.59375 -9.09375 C 21.8125 -9.632812 19.085938 -9.097656 15.421875 -7.484375 C 13.878906 -6.828125 12.195312 -5.816406 10.375 -4.453125 C 8.550781 -3.097656 7.46875 -1.863281 7.125 -0.75 C 7.070312 -0.59375 7.046875 -0.414062 7.046875 -0.21875 C 7.054688 -0.03125 6.90625 0.226562 6.59375 0.5625 C 5.757812 1.445312 5.039062 1.164062 4.4375 -0.28125 C 4.382812 -0.9375 4.457031 -1.582031 4.65625 -2.21875 C 5.207031 -4.039062 6.066406 -5.890625 7.234375 -7.765625 C 7.035156 -7.648438 6.539062 -7.265625 5.75 -6.609375 C 4.957031 -5.953125 4.09375 -5.34375 3.15625 -4.78125 C 2.664062 -4.488281 2.382812 -4.570312 2.3125 -5.03125 C 2.289062 -5.113281 2.300781 -5.222656 2.34375 -5.359375 C 2.394531 -5.503906 2.523438 -5.648438 2.734375 -5.796875 C 7.015625 -8.710938 9.582031 -10.671875 10.4375 -11.671875 C 11.757812 -13.429688 13.640625 -15.6875 16.078125 -18.4375 C 18.515625 -21.1875 20.644531 -23.332031 22.46875 -24.875 C 26.226562 -28.101562 29.457031 -29.3125 32.15625 -28.5 C 32.625 -28.351562 33.101562 -28.140625 33.59375 -27.859375 L 34.65625 -27.09375 C 35.59375 -26.0625 35.898438 -25.019531 35.578125 -23.96875 C 35.253906 -22.914062 34.597656 -21.867188 33.609375 -20.828125 C 31.921875 -19.046875 28.882812 -17.070312 24.5 -14.90625 C 20.125 -12.75 15.988281 -11.046875 12.09375 -9.796875 C 10.851562 -8.609375 9.664062 -6.929688 8.53125 -4.765625 C 10.664062 -6.492188 13.222656 -8.015625 16.203125 -9.328125 C 19.179688 -10.640625 21.765625 -10.960938 23.953125 -10.296875 Z M 23.671875 -16.234375 C 29.847656 -19.554688 33.285156 -22.367188 33.984375 -24.671875 C 34.273438 -25.628906 34.0625 -26.21875 33.34375 -26.4375 C 32.78125 -26.613281 31.921875 -26.484375 30.765625 -26.046875 C 25.710938 -24.160156 19.945312 -19.46875 13.46875 -11.96875 C 16.707031 -12.945312 20.109375 -14.367188 23.671875 -16.234375 Z M 23.671875 -16.234375 "/></g></g></g><g fill="#000000" fill-opacity="1"><g transform="translate(220.485704, 139.20265)"><g><path d="M 23.21875 -8.625 C 25.21875 -7.625 25.726562 -6.15625 24.75 -4.21875 C 24.25 -3.21875 23.566406 -2.539062 22.703125 -2.1875 C 21.085938 -1.28125 18.984375 -0.835938 16.390625 -0.859375 C 13.796875 -0.878906 11.75 -1.203125 10.25 -1.828125 C 9.707031 -2.046875 9.503906 -2.328125 9.640625 -2.671875 C 9.671875 -2.847656 9.757812 -2.921875 9.90625 -2.890625 C 10.0625 -2.859375 10.175781 -2.828125 10.25 -2.796875 C 11.132812 -2.441406 12.429688 -2.296875 14.140625 -2.359375 C 17.296875 -2.453125 19.8125 -2.914062 21.6875 -3.75 C 22.5 -4.175781 23.054688 -4.691406 23.359375 -5.296875 C 23.671875 -5.910156 23.53125 -6.363281 22.9375 -6.65625 C 22.445312 -6.90625 21.691406 -7.03125 20.671875 -7.03125 C 18.523438 -7.09375 15.976562 -6.597656 13.03125 -5.546875 C 10.09375 -4.492188 7.835938 -3.15625 6.265625 -1.53125 C 5.785156 -1.019531 5.398438 -0.476562 5.109375 0.09375 C 4.828125 0.664062 4.796875 1.332031 5.015625 2.09375 C 5.242188 2.863281 5.851562 3.5 6.84375 4 C 7.957031 4.5625 9.382812 4.90625 11.125 5.03125 C 16.164062 5.425781 20.6875 4.46875 24.6875 2.15625 C 25.0625 1.96875 25.296875 2.015625 25.390625 2.296875 C 25.503906 2.441406 25.53125 2.566406 25.46875 2.671875 C 25.414062 2.785156 25.296875 2.894531 25.109375 3 C 23.078125 4.289062 20.835938 5.234375 18.390625 5.828125 C 13.679688 6.992188 9.769531 6.796875 6.65625 5.234375 C 3.976562 3.890625 2.503906 2.144531 2.234375 0 C 2.140625 -0.832031 2.316406 -1.691406 2.765625 -2.578125 C 3.210938 -3.472656 3.984375 -4.410156 5.078125 -5.390625 C 7.066406 -7.046875 10.140625 -8.222656 14.296875 -8.921875 C 18.460938 -9.617188 21.4375 -9.519531 23.21875 -8.625 Z M 23.21875 -8.625 "/></g></g></g><g fill="#000000" fill-opacity="1"><g transform="translate(237.033404, 147.610436)"><g><path d="M 37.796875 -12.65625 C 38.722656 -13.125 39.328125 -13.566406 39.609375 -13.984375 C 40.097656 -14.703125 40.050781 -15.257812 39.46875 -15.65625 C 38.988281 -15.988281 38.203125 -16.125 37.109375 -16.0625 C 32.921875 -15.800781 27.972656 -14.253906 22.265625 -11.421875 C 17.679688 -9.117188 14.003906 -6.976562 11.234375 -5 C 14.703125 -5 19.144531 -5.8125 24.5625 -7.4375 C 29.976562 -9.070312 34.390625 -10.8125 37.796875 -12.65625 Z M 9.0625 -3.453125 C 7.863281 -2.578125 7.109375 -1.953125 6.796875 -1.578125 C 6.492188 -1.210938 6.113281 -0.695312 5.65625 -0.03125 C 5.207031 0.632812 4.96875 1.363281 4.9375 2.15625 C 4.875 3.476562 5.804688 4.210938 7.734375 4.359375 C 9.128906 4.503906 11.113281 4.390625 13.6875 4.015625 C 16.257812 3.640625 18.382812 3.144531 20.0625 2.53125 C 20.195312 2.476562 20.332031 2.5 20.46875 2.59375 C 20.769531 2.789062 20.707031 3.070312 20.28125 3.4375 C 19.125 4.007812 17.363281 4.539062 15 5.03125 C 12.632812 5.519531 10.59375 5.800781 8.875 5.875 C 7.164062 5.945312 5.742188 5.597656 4.609375 4.828125 C 2.015625 3.046875 1.585938 0.882812 3.328125 -1.65625 C 3.390625 -1.757812 3.457031 -1.863281 3.53125 -1.96875 C 5.300781 -4.269531 8.988281 -7.0625 14.59375 -10.34375 C 20.195312 -13.632812 24.773438 -15.882812 28.328125 -17.09375 L 31.265625 -18 C 31.953125 -18.1875 32.878906 -18.363281 34.046875 -18.53125 C 36.296875 -18.90625 38.148438 -18.59375 39.609375 -17.59375 C 41.078125 -16.59375 41.765625 -15.476562 41.671875 -14.25 C 41.640625 -13.8125 41.421875 -13.300781 41.015625 -12.71875 C 40.617188 -12.132812 39.800781 -11.488281 38.5625 -10.78125 C 30.84375 -7.050781 21.007812 -4.609375 9.0625 -3.453125 Z M 9.0625 -3.453125 "/></g></g></g></svg>