<svg width="118" height="520" viewBox="0 0 118 520" fill="none" xmlns="http://www.w3.org/2000/svg">
<path fill-rule="evenodd" clip-rule="evenodd" d="M372.409 409.168C347.706 456.627 291.85 479.594 243.131 496.72C193.04 514.328 134.92 531.814 94.6714 506.8C55.2645 482.31 64.1925 419.626 47.2307 374.971C32.9949 337.493 -7.76523 309.083 3.3829 266.468C14.5466 223.794 72.5001 210.636 99.8016 174.015C131.45 131.563 130.419 69.3086 173.092 38.8259C220.248 5.1405 283.482 -9.68643 330.234 9.40924C376.672 28.377 400.48 81.8728 406.952 134.346C412.458 178.999 367.975 221.629 362.136 268.091C355.912 317.608 396.527 362.834 372.409 409.168Z" stroke="#EAD38D"/>
</svg>
