<svg width="15" height="14" viewBox="0 0 15 14" fill="none" xmlns="http://www.w3.org/2000/svg">
<path d="M3.84878 9.33268C3.91295 9.04685 3.79628 8.63852 3.59211 8.43435L2.17461 7.01685C1.73128 6.57352 1.55628 6.10102 1.68461 5.69268C1.81878 5.28435 2.23295 5.00435 2.85128 4.89935L4.67128 4.59602C4.93378 4.54935 5.25461 4.31602 5.37711 4.07685L6.38045 2.06435C6.67211 1.48685 7.06878 1.16602 7.50045 1.16602C7.93211 1.16602 8.32878 1.48685 8.62045 2.06435L9.62378 4.07685C9.69961 4.22852 9.85711 4.37435 10.0263 4.47352L3.74378 10.756C3.66211 10.8377 3.52211 10.7618 3.54545 10.6452L3.84878 9.33268Z" fill="#FFAE00"/>
<path d="M11.4088 8.43608C11.1988 8.64608 11.0821 9.04858 11.1521 9.33441L11.5546 11.0902C11.7238 11.8194 11.6188 12.3677 11.2571 12.6302C11.1113 12.7352 10.9363 12.7877 10.7321 12.7877C10.4346 12.7877 10.0846 12.6769 9.69962 12.4494L7.99046 11.4344C7.72212 11.2769 7.27879 11.2769 7.01046 11.4344L5.30129 12.4494C4.65379 12.8286 4.09962 12.8927 3.74379 12.6302C3.60962 12.5311 3.51046 12.3969 3.44629 12.2219L10.5396 5.12858C10.808 4.86025 11.1871 4.73775 11.5546 4.80191L12.1438 4.90108C12.7621 5.00608 13.1763 5.28608 13.3105 5.69441C13.4388 6.10275 13.2638 6.57525 12.8205 7.01858L11.4088 8.43608Z" fill="#FFAE00"/>
</svg>
