<svg width="20" height="20" viewBox="0 0 20 20" fill="none" xmlns="http://www.w3.org/2000/svg">
<path d="M19.0027 19.0209L14.6594 14.6783M14.6594 14.6783C15.4022 13.9353 15.9914 13.0533 16.3934 12.0827C16.7954 11.112 17.0022 10.0717 17.0021 9.02108C17.002 7.97048 16.795 6.93019 16.3929 5.95959C15.9908 4.98899 15.4014 4.10711 14.6584 3.36428C13.9155 2.62145 13.0335 2.03224 12.0628 1.63027C11.0922 1.2283 10.0518 1.02146 9.00124 1.02155C7.95064 1.02164 6.91034 1.22865 5.93975 1.63078C4.96915 2.03291 4.08727 2.62228 3.34444 3.36523C1.84424 4.86568 1.00153 6.90064 1.00171 9.02242C1.00188 11.1442 1.84493 13.179 3.34539 14.6792C4.84584 16.1794 6.8808 17.0221 9.00258 17.022C11.1244 17.0218 13.1592 16.1787 14.6594 14.6783Z" stroke="#EAD38D" stroke-linecap="round" stroke-linejoin="round"/>
</svg>
