<svg width="27" height="26" viewBox="0 0 27 26" fill="none" xmlns="http://www.w3.org/2000/svg">
<path d="M13.5 0L15.6028 4.12816L19.3574 1.28741L19.392 5.88533L24.0547 4.89463L22.0142 9.05166L26.6615 10.1072L22.95 13L26.6615 15.8928L22.0142 16.9483L24.0547 21.1054L19.392 20.1147L19.3574 24.7126L15.6028 21.8718L13.5 26L11.3972 21.8718L7.64257 24.7126L7.60802 20.1147L2.94528 21.1054L4.98584 16.9483L0.338473 15.8928L4.05 13L0.338473 10.1072L4.98584 9.05166L2.94528 4.89463L7.60802 5.88533L7.64257 1.28741L11.3972 4.12816L13.5 0Z" fill="#EAD38D"/>
</svg>
