<svg width="1280" height="361" viewBox="0 0 1280 361" fill="none" xmlns="http://www.w3.org/2000/svg">
<g filter="url(#filter0_i_274_45)">
<path d="M0 333.586V54.5443C0 54.5443 33.0818 56.4475 54 54.5443C90.2727 51.2442 105.588 34.1634 142 31.7654C191.046 28.5354 215.047 50.6655 264 54.5443C326.275 59.4786 364.793 60.6028 424 46.0022C470.325 34.5785 483.396 5.01149 532 0.444402C578.389 -3.91451 601.47 25.3136 648 21.7996C681.18 19.2939 694.791 2.74605 728 0.444402C773.068 -2.67909 794.828 19.5671 840 21.7996C901.124 24.8205 932.876 -2.5765 994 0.444402C1039.17 2.67691 1061.01 25.4741 1106 21.7996C1137.7 19.2103 1150.19 2.23459 1182 0.444402C1221.9 -1.80112 1280 21.7996 1280 21.7996V303.689C1280 303.689 1195.34 356.258 1132 352.094C1079.04 348.612 1066.83 299.309 1014 303.689C965.526 307.707 966.333 355.835 918 360.636C863.301 366.069 849.022 308.838 794 312.231C746.305 315.171 739.695 357.695 692 360.636C636.978 364.028 623.087 309.421 568 312.231C524.034 314.474 513.219 345.924 470 352.094C409.817 360.685 377.677 313.398 318 323.62C279.842 330.156 271.054 357.866 232 360.636C179.076 364.39 166.903 316.128 114 312.231C68.209 308.858 0 333.586 0 333.586Z" fill="#C5A9DF"/>
</g>
<defs>
<filter id="filter0_i_274_45" x="0" y="0" width="1280" height="365" filterUnits="userSpaceOnUse" color-interpolation-filters="sRGB">
<feFlood flood-opacity="0" result="BackgroundImageFix"/>
<feBlend mode="normal" in="SourceGraphic" in2="BackgroundImageFix" result="shape"/>
<feColorMatrix in="SourceAlpha" type="matrix" values="0 0 0 0 0 0 0 0 0 0 0 0 0 0 0 0 0 0 127 0" result="hardAlpha"/>
<feOffset dy="4"/>
<feGaussianBlur stdDeviation="2"/>
<feComposite in2="hardAlpha" operator="arithmetic" k2="-1" k3="1"/>
<feColorMatrix type="matrix" values="0 0 0 0 0 0 0 0 0 0 0 0 0 0 0 0 0 0 0.25 0"/>
<feBlend mode="normal" in2="shape" result="effect1_innerShadow_274_45"/>
</filter>
</defs>
</svg>
